<svg width="430" height="430" viewBox="0 0 430 430" fill="none" xmlns="http://www.w3.org/2000/svg">
<path d="M215.9 151.3C212.6 151.3 209.9 154 209.9 157.3V313.2C209.9 316.5 212.6 319.2 215.9 319.2C219.2 319.2 221.9 316.5 221.9 313.2V157.3C221.9 154 219.3 151.3 215.9 151.3Z" fill="url(#paint0_linear_2170_3087)"/>
<path d="M157.3 151.3C154 151.3 151.3 154 151.3 157.3V313.2C151.3 316.5 154 319.2 157.3 319.2C160.6 319.2 163.3 316.5 163.3 313.2V157.3C163.3 154 160.6 151.3 157.3 151.3Z" fill="url(#paint1_linear_2170_3087)"/>
<path d="M274.4 151.3C271.1 151.3 268.4 154 268.4 157.3V313.2C268.4 316.5 271.1 319.2 274.4 319.2C277.7 319.2 280.4 316.5 280.4 313.2V157.3C280.4 154 277.7 151.3 274.4 151.3Z" fill="url(#paint2_linear_2170_3087)"/>
<path d="M354.8 78.8L265.6 78.6C264 51.9 238.8 33.5 216 33.5C190.7 33.5 169 52.4 165.5 77.4C165.5 77.7 165.4 78 165.4 78.3L76 78.1C72.7 78.1 70 80.8 70 84.1C70 87.4 72.7 90.1 76 90.1H92.5V90.2C92.5 92.5 92.5 95.8 92.6 99.4C92.6 103.5 92.7 108 92.7 111.9C92.7 112.7 92.5 361.3 92.5 363.8C92.5 372.6 95.9 380.9 102.2 387.1C108.4 393.3 116.7 396.8 125.5 396.8H306.5C315.3 396.8 323.6 393.4 329.8 387.1C336 380.8 339.4 372.6 339.4 363.8L338.9 113.6C338.9 104.4 338.9 96.1 338.8 91C338.8 90.9 338.8 90.9 338.8 90.8H354.8C358.1 90.8 360.8 88.1 360.8 84.8C360.8 81.5 358.1 78.9 354.8 78.8ZM216 45.5C233.1 45.5 252 58.9 253.6 78.6L177.5 78.4C180.5 59.6 196.9 45.5 216 45.5ZM326.8 113.6L327.3 363.8C327.3 369.4 325.1 374.7 321.2 378.6C317.3 382.5 312 384.8 306.4 384.8H125.4C119.8 384.8 114.5 382.6 110.6 378.6C106.7 374.6 104.5 369.4 104.5 363.8L104.6 112C104.6 108.1 104.6 103.5 104.5 99.4C104.5 95.8 104.4 92.6 104.4 90.3V90.2L326.8 90.8C326.8 90.9 326.8 91 326.8 91.1C326.8 96.1 326.8 104.4 326.8 113.6Z" fill="url(#paint3_linear_2170_3087)"/>
<defs>
<linearGradient id="paint0_linear_2170_3087" x1="74.215" y1="77.4631" x2="356.795" y2="359.918" gradientUnits="userSpaceOnUse">
<stop stop-color="#CB5EEE"/>
<stop offset="1" stop-color="#4BE1EC"/>
</linearGradient>
<linearGradient id="paint1_linear_2170_3087" x1="74.215" y1="77.4631" x2="356.795" y2="359.918" gradientUnits="userSpaceOnUse">
<stop stop-color="#CB5EEE"/>
<stop offset="1" stop-color="#4BE1EC"/>
</linearGradient>
<linearGradient id="paint2_linear_2170_3087" x1="74.215" y1="77.4631" x2="356.795" y2="359.918" gradientUnits="userSpaceOnUse">
<stop stop-color="#CB5EEE"/>
<stop offset="1" stop-color="#4BE1EC"/>
</linearGradient>
<linearGradient id="paint3_linear_2170_3087" x1="74.215" y1="77.4631" x2="356.795" y2="359.918" gradientUnits="userSpaceOnUse">
<stop stop-color="#CB5EEE"/>
<stop offset="1" stop-color="#4BE1EC"/>
</linearGradient>
</defs>
</svg>
