<svg xmlns="http://www.w3.org/2000/svg" width="430" height="430" style="width:100%;height:100%;transform:translate3d(0,0,0);content-visibility:visible" viewBox="0 0 430 430"><defs><clipPath id="a"><path d="M0 0h430v430H0z"/></clipPath><clipPath id="c"><path d="M0 0h430v430H0z"/></clipPath><clipPath id="b"><path d="M0 0h430v430H0z"/></clipPath></defs><g fill="none" clip-path="url(#a)"><g clip-path="url(#b)" style="display:none"><path class="primary" style="display:none"/><path class="primary" style="display:none"/><g style="display:none"><path class="secondary"/><path class="secondary"/><path class="secondary"/></g></g><g clip-path="url(#c)" style="display:block"><path stroke="#121330" stroke-linecap="round" stroke-linejoin="round" stroke-width="12" d="M13.099-117.65c48.6 0 90.4 29.5 108.3 71.6 31.5 12.4 53.9 43 53.7 78.9 0 46.8-37.9 84.8-84.8 84.8h-196.9c-37.8 0-68.5-30.7-68.5-68.5 0-26.3 14.9-49.1 36.7-60.6-.6-2.6-.9-5.2-.9-7.9 0-20.2 16.4-36.6 36.6-36.6 3.9 0 7.7.6 11.3 1.8 19.7-37.7 59.1-63.5 104.5-63.5" class="primary" style="display:block" transform="translate(214.9 215.45)"/><path stroke="#121330" stroke-linecap="round" stroke-linejoin="round" stroke-width="12" d="M-82.411-17.913c-5.142-13.863-18.623-23.783-34.489-23.783m224.117 8.925c6.272 14.172 9.75 29.816 9.75 46.26 0 0 .038 12.511-4.419 27.762" class="primary" style="display:block" transform="translate(228.899 201.3)"/><path class="primary" style="display:none"/><path class="primary" style="display:none"/><path class="primary" style="display:none"/><path class="primary" style="display:none"/><path class="primary" style="display:none"/><path stroke="#07A889" stroke-linecap="round" stroke-linejoin="round" stroke-width="12.04" d="m176.533 226.759-36.976 27.245 36.976 27.245m90.936-54.49 36.976 27.245-36.976 27.245m-54.702 0 17.656-54.49" class="secondary" style="display:block"/></g></g></svg>